Coordinates
version=1
nRows=14
nColumns=24
inDegrees=yes

Units are S.I. units (second, meters, Newtons, ...)
Angles are in degrees.

endheader
time	pelvis_tilt	pelvis_list	pelvis_rotation	pelvis_tx	pelvis_ty	pelvis_tz	hip_flexion_r	hip_adduction_r	hip_rotation_r	knee_angle_r	ankle_angle_r	subtalar_angle_r	mtp_angle_r	hip_flexion_l	hip_adduction_l	hip_rotation_l	knee_angle_l	ankle_angle_l	subtalar_angle_l	mtp_angle_l	lumbar_extension	lumbar_bending	lumbar_rotation
      1.12100000	     -0.80307937	      1.29947148	     -7.01511606	     -0.12610720	      0.99488624	      0.33265895	    -16.00635517	      0.86334377	      1.93356695	     -6.98822933	     11.77009448	     -5.79874810	      5.25478367	     20.56910854	      1.84313598	    -11.89917029	      5.85417449	      2.40204004	     -6.26048060	      2.63026919	     -4.04870387	     -1.38193993	     14.32803940
      1.12516667	     -0.76215882	      1.38508404	     -7.07017007	     -0.12007064	      0.99445608	      0.33256914	    -16.14529515	      0.69170247	      1.87448736	     -7.50050451	     11.79083841	     -5.58631559	      5.37114140	     20.55249431	      1.98454165	    -11.66746581	      5.49642458	      2.30665259	     -6.67108615	      2.66017190	     -4.04233499	     -1.50796630	     14.43196515
      1.12933333	     -0.73480929	      1.48209109	     -7.13136878	     -0.11400506	      0.99404346	      0.33248749	    -16.24771801	      0.50729082	      1.81711320	     -8.05240631	     11.78647275	     -5.37921098	      5.51180815	     20.54430600	      2.13125812	    -11.39023889	      5.09695377	      2.15681320	     -7.12790320	      2.70412255	     -4.01841050	     -1.64524954	     14.53964745
      1.13350000	     -0.69656539	      1.59081086	     -7.19121384	     -0.10790123	      0.99367578	      0.33240051	    -16.34659740	      0.30848954	      1.74634665	     -8.63247410	     11.76247565	     -5.16213407	      5.68065519	     20.51823591	      2.29083320	    -11.06842343	      4.66435291	      1.95184547	     -7.63148968	      2.76401813	     -3.99938172	     -1.79820027	     14.64519369
      1.13766667	     -0.69014065	      1.70670140	     -7.25720378	     -0.10176585	      0.99330769	      0.33232040	    -16.38692558	      0.10422179	      1.68295537	     -9.25810942	     11.71080834	     -4.95443128	      5.88041062	     20.52350276	      2.44957185	    -10.71876727	      4.19580294	      1.69429455	     -8.16360100	      2.83910600	     -3.93944096	     -1.95455043	     14.75179796
      1.14183333	     -0.65426918	      1.83274651	     -7.32121306	     -0.09561259	      0.99300721	      0.33223545	    -16.44159884	     -0.11510377	      1.60619412	     -9.91249968	     11.63741583	     -4.73800074	      6.11542662	     20.48985936	      2.62329863	    -10.33230495	      3.71147400	      1.38494366	     -8.73074666	      2.93058783	     -3.90919561	     -2.12920443	     14.85785841
      1.14600000	     -0.63149211	      1.96696471	     -7.38738833	     -0.08942790	      0.99272544	      0.33214020	    -16.45676275	     -0.34367225	      1.52157817	    -10.61410748	     11.53928283	     -4.51255101	      6.38992541	     20.46557630	      2.80324838	     -9.92512905	      3.20809768	      1.02258260	     -9.32569584	      3.03862352	     -3.86083877	     -2.30895298	     14.96130104
      1.15016667	     -0.61882278	      2.10890053	     -7.45606432	     -0.08321716	      0.99247087	      0.33204576	    -16.43554517	     -0.58120283	      1.43462667	    -11.36051912	     11.40984023	     -4.29479934	      6.69168809	     20.45042587	      2.98765411	     -9.51404984	      2.68417485	      0.61679110	     -9.92429399	      3.15456030	     -3.79180222	     -2.49794546	     15.06136857
      1.15433333	     -0.58900777	      2.26102279	     -7.52227271	     -0.07698231	      0.99227115	      0.33193152	    -16.40792873	     -0.83350497	      1.32842848	    -12.15234130	     11.25228105	     -4.06133578	      7.04361418	     20.40974731	      3.18738907	     -9.09554228	      2.16134338	      0.17018772	    -10.54246731	      3.28623931	     -3.74136313	     -2.69945059	     15.16030349
      1.15850000	     -0.58488654	      2.42436358	     -7.58940318	     -0.07072765	      0.99207938	      0.33181377	    -16.32562019	     -1.09547706	      1.23450660	    -12.98924210	     11.05623012	     -3.83605330	      7.41017663	     20.39883502	      3.39223634	     -8.69172684	      1.61925650	     -0.29754798	    -11.12015796	      3.41631165	     -3.66708759	     -2.91101792	     15.24757006
      1.16266667	     -0.56214157	      2.58493610	     -7.63372841	     -0.06445155	      0.99194332	      0.33167286	    -16.25421481	     -1.34947708	      1.13368385	    -13.83376983	     10.72572004	     -3.83764977	     12.83580876	     20.36827955	      3.60211856	     -8.27454855	      1.06812555	     -0.81845782	    -11.74433708	      5.30835752	     -3.59180237	     -3.12811571	     15.24428118
      1.16683333	     -0.51274596	      2.76887242	     -7.71558380	     -0.05816692	      0.99188616	      0.33152498	    -16.14885197	     -1.65761265	      0.97680354	    -14.79233743	     10.47971340	     -3.46067183	     12.89872454	     20.31291365	      3.82724468	     -7.99111936	      0.50011718	     -1.28633390	    -12.20202130	      5.33868153	     -3.55483562	     -3.36489467	     15.39986767
      1.17100000	     -0.50236196	      2.94978364	     -7.78070026	     -0.05187678	      0.99181757	      0.33136053	    -15.97584787	     -1.94935756	      0.84707755	    -15.79853234	     10.18407270	     -3.21096052	     13.01348209	     20.29192691	      4.04797031	     -7.66149049	     -0.05884689	     -1.79242306	    -12.72430410	      5.37263232	     -3.46676481	     -3.59676218	     15.46335085
      1.17516667	     -0.47145025	      3.14243210	     -7.84102678	     -0.04558104	      0.99180888	      0.33117581	    -15.79459907	     -2.25941902	      0.70385705	    -16.85443105	      9.84692193	     -2.95016934	     13.17080971	     20.25045017	      4.28292320	     -7.36683909	     -0.62418334	     -2.28618380	    -13.19834363	      5.40617402	     -3.39949561	     -3.84012289	     15.51966278
